<svg class="icons__icon" xmlns="http://www.w3.org/2000/svg" width="49.294" height="62.254"><g fill="none" stroke="currentColor" stroke-linecap="round" stroke-linejoin="round" stroke-width="1.5"><path d="M24.644 56.306s11.725-7.728 15.488-10.509c2.615-1.933 4.068-5.55 4.068-9.322V15.509c-9.025.628-19.552-8.793-19.557-8.8h0c-.005 0-10.532 9.425-19.557 8.8v20.966c0 3.773 1.453 7.39 4.068 9.322 3.763 2.781 15.489 10.509 15.489 10.509h0"/><path d="M24.647 61.504l-2.388-1.574c-.483-.318-11.868-7.825-15.68-10.642C2.929 46.588.75 41.8.75 36.475V10.857l4.641.324q.286.02.576.02c5.8 0 13.3-5.518 15.75-7.691l2.93-2.758 2.929 2.759c2.454 2.172 9.947 7.69 15.749 7.69h0c.193 0 .386-.007.578-.02l4.641-.324v25.618c0 5.325-2.179 10.115-5.829 12.813-3.813 2.817-15.2 10.324-15.681 10.642z"/><path d="M17.83 28.835l6.058 6.058 11.921-11.921m-5.161-.002a10.442 10.442 0 103.646 6.429"/></g></svg>