<svg class="icons__icon" xmlns="http://www.w3.org/2000/svg" width="78.76" height="58.468"><g transform="translate(-3740.463 -780.713)" stroke-width="1.8" stroke="currentColor" stroke-linecap="round" stroke-linejoin="round" fill="none"><path d="M3776.902 793.136h-1.085m-11.937 0h-1.085m-5.426 0h-1.085m-5.426 0h-1.085m61.391 8.589v-13.787a6.325 6.325 0 00-6.325-6.325h-57.15a6.325 6.325 0 00-6.325 6.325v36.133a6.326 6.326 0 006.325 6.326h38.082m-7.516-4.262h-3.984m8.803-3.885h-41.711m41.607 15.952l-.725-7.828m-11.963 0l-.725 7.828m20.292 0h-27.171m20.736-45.066h-1.085m13.785 0h-1.085m-11.938 0h-1.085m20.708 0h-1.098m-24.714 4.34h-1.085m-5.426 0h-1.085m-5.426 0h-1.085m-5.426 0h-1.085m33.641 0h-1.085m-5.426 0h-1.085m20.385.051h-1.098m-5.489 0h-1.098m-18.127 4.29h-1.085m-5.426 0h-1.085m-5.426 0h-1.085m-5.426 0h-1.085m-5.426 0h-1.085m40.152 0h-1.085m-11.938 4.341h-1.085m-5.426 0h-1.085m-5.426 0h-1.085m-11.937 0h-1.085m33.641 0h-1.085m-5.427 4.34h-1.085m-11.937 0h-1.085m-5.426 0h-1.085m-5.426 0h-1.085m33.641 0h-1.085"/><circle cx="14.996" cy="14.996" r="14.996" transform="translate(3788.33 805.402)"/><path d="M3803.868 826.909h-1.085m-5.426 0h-1.085m14.108-4.34h-1.085m-5.427 0h-1.085m7.597-4.341h-1.085m-5.427 0h-1.085m-5.426 0h-1.085m14.108-4.341h-1.085m-11.938 0h-1.085"/></g></svg>