<svg class="icons__icon" xmlns="http://www.w3.org/2000/svg" width="63.956" height="68.754"><g transform="translate(-3294.214 -776.073)" fill="none" stroke="currentColor" stroke-linecap="round" stroke-linejoin="round" stroke-width="1.5"><path d="M3329.599 789.633h-6.632a1.7 1.7 0 00-1.7 1.695h0v2.688a17.107 17.107 0 00-3.638 1.492l-1.888-1.89a1.7 1.7 0 00-2.4 0h0l-4.315 4.323a1.7 1.7 0 000 2.4h0l1.874 1.874a17.132 17.132 0 00-1.519 3.654h-2.645a1.7 1.7 0 00-1.695 1.7h0v6.108a1.7 1.7 0 001.695 1.7h2.646a17.132 17.132 0 001.519 3.654l-1.874 1.873a1.7 1.7 0 000 2.4h0l4.32 4.32a1.694 1.694 0 002.4 0h0l1.888-1.89a17.179 17.179 0 003.638 1.493v2.687a1.7 1.7 0 001.7 1.7h6.108a1.7 1.7 0 001.695-1.7h0v-2.72a17.1 17.1 0 003.6-1.5l1.937 1.937a1.7 1.7 0 002.4 0h0l4.319-4.319a1.7 1.7 0 000-2.4l-1.949-1.949a17.109 17.109 0 001.476-3.579h2.763a1.7 1.7 0 001.7-1.7h0v-6.643"/><path d="M3338.497 810.613a12.477 12.477 0 01-12.477 12.477 12.477 12.477 0 01-12.476-12.477 12.476 12.476 0 0112.476-12.476" stroke-dasharray="0.502 6.023"/><path d="M3326.02 800.77a9.844 9.844 0 00-9.843 9.843 9.843 9.843 0 009.843 9.843 9.842 9.842 0 009.843-9.843m11.48-10.61v-2.719a.754.754 0 00-.755-.754h-1.23a7.6 7.6 0 00-.656-1.593l.867-.868a.754.754 0 000-1.067h0l-1.921-1.922a.757.757 0 00-1.068 0h0l-.86.86a7.593 7.593 0 00-1.6-.668v-1.211a.754.754 0 00-.754-.755h-2.718a.754.754 0 00-.755.755v1.2a7.605 7.605 0 00-1.619.665l-.841-.842a.755.755 0 00-1.067 0h0l-1.922 1.922a.755.755 0 000 1.068l.831.831a7.584 7.584 0 00-.677 1.627h-1.177a.754.754 0 00-.755.754v2.719a.754.754 0 00.755.755h1.177a7.583 7.583 0 00.677 1.627l-.831.831a.753.753 0 000 1.067h0l1.922 1.922a.755.755 0 001.068 0h0l.841-.841a7.6 7.6 0 001.619.664v1.2a.754.754 0 00.755.755h2.718a.754.754 0 00.754-.755v-1.211a7.53 7.53 0 001.6-.669l.86.86a.753.753 0 001.067 0h0l1.921-1.922a.753.753 0 000-1.066h0l-.867-.867a7.6 7.6 0 00.656-1.593h1.23a.754.754 0 00.755-.759z"/><path d="M3341.151 798.637a3.145 3.145 0 00-3.145-3.145 3.145 3.145 0 00-3.145 3.145 3.146 3.146 0 003.145 3.147 3.146 3.146 0 003.145-3.147z"/><path d="M3324.177 779.308a31.137 31.137 0 0124.079 9.075 31.207 31.207 0 017.225 32.85 31.056 31.056 0 01-7.225 11.282"/><circle cx="3.02" cy="3.02" r="3.02" transform="translate(3318.189 776.823)"/><path d="M3328.206 841.592a31.14 31.14 0 01-24.08-9.075 31.209 31.209 0 01-7.225-32.852 31.07 31.07 0 017.224-11.282"/><circle cx="3.02" cy="3.02" r="3.02" transform="translate(3328.154 838.037)"/></g></svg>