<svg class="icons__icon" xmlns="http://www.w3.org/2000/svg" width="68.311" height="58.08"><g fill="none" stroke="currentColor" stroke-linecap="round" stroke-linejoin="round" stroke-width="1.5"><path d="M63.795 57.329H4.518a2.843 2.843 0 01-2.823-2.511l-.921-7.821a2.843 2.843 0 012.824-3.175h61.118a2.842 2.842 0 012.823 3.175l-.92 7.821a2.842 2.842 0 01-2.824 2.511zm-3.562-4.825h1.542"/><path d="M63.795 43.823H4.518a2.843 2.843 0 01-2.823-2.511l-.921-7.821a2.844 2.844 0 012.824-3.176h61.118a2.843 2.843 0 012.823 3.176l-.92 7.821a2.843 2.843 0 01-2.824 2.511zm-3.562-4.826h1.542"/><path d="M63.795 30.316H4.518a2.842 2.842 0 01-2.823-2.51l-.921-7.821a2.843 2.843 0 012.824-3.176h61.118a2.842 2.842 0 012.823 3.176l-.92 7.821a2.841 2.841 0 01-2.824 2.51z"/><path d="M67.012 17.978L57.889 2.452a3.9 3.9 0 00-3.222-1.7H13.646a3.9 3.9 0 00-3.223 1.7L1.301 17.978m58.932 7.513h1.542M6.403 52.504h1.542m3.855 0h1.542M6.403 38.997h1.542m3.855 0h1.542M6.403 25.491h1.542m3.855 0h1.542"/></g></svg>