<svg class="icons__icon" xmlns="http://www.w3.org/2000/svg" width="77.785" height="65.073"><g transform="translate(-3287.107 -985.379)" fill="none" stroke="currentColor" stroke-linecap="round" stroke-linejoin="round" stroke-width="1.5"><path d="M3318.143 1045.868v3.43h-30.286v-61.005a2.164 2.164 0 012.163-2.164h25.96a2.163 2.163 0 012.163 2.164v1.339m-18.171 51.878h-.865m-4.327 0h-.865m0-33.303h4.321m-4.321-4.548h6.037m-6.037-4.548h8.213m-8.213-4.549h14.699m23.047 44.389h3.528m-7.704 10.685l.642-6.932m10.594 0l.642 6.932m-17.97.001h24.062m14.529-40.011l-5.248-5.248m-.076 5.3l-4.92-4.92m9.84 9.839l-4.92-4.92"/><rect width="61.437" height="42.939" rx="8.354" transform="translate(3302.706 999.523)"/><path d="M3302.706 1035.292h61.437"/></g></svg>